<?xml version="1.0" encoding="utf-8"?>
<!-- Generator: Adobe Illustrator 22.1.0, SVG Export Plug-In . SVG Version: 6.00 Build 0)  -->
<svg version="1.1" id="Layer_1" xmlns="http://www.w3.org/2000/svg" xmlns:xlink="http://www.w3.org/1999/xlink" x="0px" y="0px"
	 viewBox="0 0 570.6 556.5" style="enable-background:new 0 0 570.6 556.5;" xml:space="preserve">
<style type="text/css">
	.st0{fill:none;stroke:#B45273;stroke-width:3;stroke-linecap:round;stroke-miterlimit:10;}
</style>
<title>rays</title>
<path class="st0" d="M132.3,93.6c2.3,2.8,2.4,2.6,4.7,5.4s2.2,2.9,4.5,5.6s2.6,2.5,4.9,5.2s2.1,3,4.4,5.7s2.4,2.7,4.7,5.5
	s2.2,2.8,4.5,5.6s2.6,2.5,4.9,5.3s2.5,2.6,4.8,5.4s2.2,2.9,4.5,5.6s2.7,2.5,5,5.2s1.9,3.1,4.2,5.9s2.1,2.9,4.4,5.7s2.8,2.4,5.1,5.1
	s2.4,2.6,4.8,5.4s1.8,3.2,4.1,5.9s2.7,2.5,5,5.2s2.1,2.9,4.4,5.7s2.6,2.5,4.9,5.3"/>
<path class="st0" d="M100.1,54.3c2.2,2.6,2.2,2.6,4.4,5.2s2.1,2.7,4.3,5.3s2.1,2.6,4.3,5.2s2.1,2.6,4.3,5.2s2.3,2.5,4.4,5.1
	s2.1,2.7,4.3,5.3"/>
<path class="st0" d="M51.6,233.3c3.5,0.6,3.5,1.1,7,1.7s3.5,0.8,7,1.4s3.6,0.5,7.1,1.1s3.4,1.1,7,1.8s3.6,0,7.2,0.6s3.5,1.1,7,1.7
	s3.6,0.1,7.2,0.7s3.6,0.4,7.1,1s3.5,0.6,7.1,1.2s3.4,1.5,6.9,2.1c3.5,0.6,3.6,0,7.2,0.6c3.5,0.6,3.4,1.3,7,1.9s3.6,0.2,7.1,0.8
	s3.4,1.2,7,1.8s3.5,0.6,7.1,1.2s3.6,0.2,7.1,0.8s3.5,0.9,7,1.5s3.6,0.1,7.2,0.7"/>
<path class="st0" d="M1.5,225c3.3,0.6,3.4,0.5,6.7,1.1s3.4,0.6,6.7,1.2s3.3,0.8,6.6,1.4s3.3,0.6,6.7,1.2s3.4,0.5,6.7,1.1
	s3.3,0.7,6.7,1.3"/>
<path class="st0" d="M79.4,393.4c3.1-1.8,3.6-1,6.7-2.8s2.8-2.4,5.9-4.2s3.5-1.1,6.6-2.9s3.1-1.7,6.3-3.5s2.8-2.4,5.9-4.2
	s3.4-1.3,6.5-3.1s2.9-2.2,6-4s2.8-2.3,5.9-4.1s3.6-1,6.7-2.8s2.7-2.6,5.8-4.4s3.2-1.6,6.3-3.4s3.4-1.3,6.5-3.1s2.7-2.5,5.8-4.3
	s3.5-1.1,6.6-2.9s3.1-1.7,6.3-3.5s2.8-2.3,5.9-4.1s3.1-1.7,6.3-3.5s3-1.9,6.1-3.7"/>
<path class="st0" d="M35.7,419.1c2.9-1.7,3-1.6,5.9-3.3s3-1.6,6-3.3s2.9-1.8,5.8-3.5s2.9-1.8,5.8-3.5s3.1-1.5,6-3.2s2.8-1.9,5.8-3.6
	"/>
<path class="st0" d="M204.3,498.3c1.2-3.4,1-3.5,2.2-6.8s0.6-3.6,1.9-7s1.3-3.4,2.5-6.7s1.2-3.4,2.4-6.8s2.2-3,3.4-6.4
	s0.9-3.5,2.1-6.9s1.4-3.3,2.6-6.7s1.2-3.4,2.4-6.8s0.5-3.6,1.8-7s2.2-3,3.5-6.4s0.6-3.6,1.9-7s1.7-3.2,3-6.6s0.9-3.5,2.1-6.9
	s1.2-3.4,2.4-6.8s1.1-3.4,2.4-6.8s1-3.5,2.2-6.8s1.8-3.2,3.1-6.5s1.1-3.4,2.4-6.8"/>
<path class="st0" d="M186.7,545.9c1.2-3.2,1.1-3.2,2.3-6.4s1.3-3.2,2.4-6.3s1.2-3.2,2.4-6.3s1.2-3.2,2.4-6.4s1-3.3,2.1-6.5l2.3-6.4"
	/>
<path class="st0" d="M366,498.4c-1.2-3.4-0.2-3.7-1.5-7.1s-1.7-3.2-2.9-6.6s-1.8-3.1-3.1-6.5s-0.9-3.5-2.1-6.9s-1.3-3.3-2.5-6.7
	s-0.8-3.5-2-6.9s-1.1-3.4-2.3-6.8s-1.3-3.4-2.5-6.7s-1.2-3.4-2.4-6.8s-1.8-3.2-3-6.5s-0.8-3.5-2-6.9s-1.2-3.4-2.4-6.8
	s-1.6-3.2-2.8-6.6s-1.5-3.3-2.7-6.7s-1.3-3.3-2.5-6.7s-0.7-3.6-1.9-7l-2.5-6.8c-1.2-3.4-0.8-3.5-2-6.9"/>
<path class="st0" d="M383.8,545.9c-1.2-3.2-1.2-3.2-2.4-6.4s-1.3-3.2-2.4-6.3s-1-3.3-2.1-6.5s-1.3-3.2-2.4-6.3s-1-3.3-2.2-6.5
	s-1.1-3.2-2.3-6.4"/>
<path class="st0" d="M490.8,394c-3.1-1.8-3-1.9-6.2-3.7s-2.9-2.1-6-3.9s-3-2-6.1-3.8s-3.3-1.4-6.4-3.2s-3.1-1.9-6.2-3.7
	s-3.1-1.9-6.2-3.7s-3.1-1.9-6.2-3.7s-3.5-1.2-6.6-3s-2.8-2.4-5.8-4.2s-3.2-1.6-6.3-3.4s-3-2.1-6.1-3.9s-3.1-1.9-6.2-3.7
	s-3.3-1.5-6.4-3.3s-3-1.9-6.2-3.7s-3.3-1.5-6.4-3.3s-2.9-2.2-6-4s-3.1-1.8-6.2-3.6s-3.3-1.6-6.4-3.4"/>
<path class="st0" d="M534.7,419.3c-2.9-1.7-2.9-1.8-5.8-3.5s-2.8-1.9-5.8-3.5s-3-1.6-5.9-3.3s-2.9-1.7-5.9-3.4s-3-1.6-5.9-3.3
	s-2.9-1.8-5.8-3.5"/>
<path class="st0" d="M519.1,234.1c-3.5,0.6-3.5,0.8-7,1.4s-3.6,0-7.2,0.7s-3.5,0.7-7.1,1.3s-3.6,0.2-7.2,0.8s-3.5,0.7-7.1,1.3
	s-3.5,0.8-7,1.4s-3.4,1.2-7,1.8s-3.5,0.6-7.1,1.2s-3.5,1.1-7,1.8s-3.6,0.5-7.1,1.1s-3.7-0.4-7.3,0.2s-3.3,1.8-6.9,2.4
	s-3.6,0.5-7.1,1.1s-3.5,0.6-7.1,1.2s-3.6,0.1-7.2,0.8s-3.5,0.7-7.1,1.3s-3.5,1-7,1.7s-3.6,0.4-7.1,1"/>
<path class="st0" d="M569.1,225.3c-3.3,0.6-3.4,0.4-6.7,1s-3.3,0.6-6.7,1.2s-3.3,0.7-6.7,1.3s-3.4,0.3-6.8,0.9s-3.3,0.9-6.6,1.5
	s-3.4,0.4-6.7,1"/>
<path class="st0" d="M437.6,93c-2.3,2.8-1.8,3.2-4.1,6s-2.6,2.5-4.9,5.3s-2.2,2.8-4.5,5.6s-2.6,2.5-4.9,5.2s-2.1,2.9-4.4,5.6
	s-2,3-4.3,5.8s-2.8,2.3-5.2,5s-2.3,2.8-4.6,5.5s-2.1,3-4.4,5.7s-2.5,2.6-4.8,5.4s-2.5,2.6-4.8,5.4s-2.2,2.8-4.5,5.6s-2,3-4.3,5.8
	s-2.7,2.4-5,5.2s-2.1,2.9-4.4,5.7l-4.6,5.5c-2.3,2.8-2.5,2.6-4.8,5.3s-1.8,3.2-4.1,6"/>
<path class="st0" d="M470.6,54.4c-2.2,2.6-2.2,2.6-4.4,5.2s-2.1,2.7-4.3,5.3l-4.3,5.2c-2.2,2.6-2.4,2.4-4.6,5s-2.2,2.6-4.4,5.2
	s-2.2,2.6-4.4,5.2"/>
<path class="st0" d="M229.9,122.5c1.2,3.3,1,3.3,2.2,6.6s1.3,3.3,2.5,6.5s1.3,3.2,2.5,6.5s1.2,3.3,2.4,6.5s1.2,3.3,2.4,6.5
	s1.1,3.3,2.3,6.6s1,3.3,2.2,6.6"/>
<path class="st0" d="M209.5,67.4c1.2,3.3,1.1,3.3,2.3,6.6s1.5,3.1,2.7,6.4s1.2,3.3,2.4,6.5s1.1,3.3,2.3,6.5s1.1,3.3,2.3,6.6
	s1.2,3.3,2.4,6.5s1.1,3.3,2.3,6.6"/>
<path class="st0" d="M189.3,12.2c1.2,3.3,1.4,3.2,2.6,6.5s1.3,3.2,2.5,6.5s0.9,3.4,2.1,6.6s1.5,3.2,2.7,6.4s1.1,3.3,2.3,6.6
	s1.3,3.2,2.5,6.5s0.9,3.4,2,6.7"/>
<path class="st0" d="M144.6,194c3,1.7,3.1,1.6,6.1,3.4s3,1.7,6,3.5s2.9,1.9,5.9,3.7s3.2,1.5,6.2,3.2s2.9,2,5.9,3.7s3,1.8,6,3.5
	s3,1.7,6,3.5"/>
<path class="st0" d="M93.7,164.7c3,1.7,3.1,1.6,6.1,3.4s3,1.8,6,3.6s3.1,1.6,6.1,3.4s2.9,1.9,5.9,3.7s3.1,1.5,6.1,3.3
	s2.9,1.9,5.9,3.7s3.1,1.6,6.1,3.4"/>
<path class="st0" d="M42.9,135.1c3,1.7,3,1.9,6,3.6s3.1,1.6,6.1,3.3s2.9,2,5.9,3.7s3.2,1.4,6.2,3.2s2.9,1.9,5.9,3.7s3.1,1.6,6.1,3.3
	s3,1.9,6,3.6"/>
<path class="st0" d="M125.4,303.3c3.4-0.6,3.4-0.7,6.8-1.3s3.5-0.3,6.9-0.9s3.4-0.8,6.8-1.4s3.4-0.8,6.8-1.4s3.5-0.5,6.9-1.1
	l6.9-1.2c3.4-0.6,3.4-0.7,6.9-1.3"/>
<path class="st0" d="M67.5,313.5c3.4-0.6,3.4-0.8,6.8-1.4s3.4-0.6,6.9-1.2s3.5-0.4,6.9-1s3.4-0.6,6.9-1.2l6.9-1.2
	c3.4-0.6,3.4-0.7,6.9-1.3s3.4-0.7,6.9-1.3"/>
<path class="st0" d="M9.7,323.8c3.4-0.6,3.5-0.5,6.9-1.1s3.4-0.8,6.8-1.4s3.4-0.6,6.9-1.2s3.5-0.5,6.9-1s3.4-0.8,6.8-1.4
	s3.4-0.6,6.9-1.2s3.5-0.5,6.9-1.1"/>
<path class="st0" d="M180.9,399.5c2.2-2.7,2.4-2.6,4.6-5.2s2-2.9,4.2-5.6s2.4-2.5,4.7-5.2s2.1-2.8,4.3-5.5s2.4-2.6,4.6-5.3
	s2.3-2.6,4.5-5.3s2.3-2.6,4.6-5.3"/>
<path class="st0" d="M143,444.4c2.2-2.7,2.3-2.7,4.5-5.3s2.2-2.7,4.5-5.3s2.4-2.5,4.7-5.2s2-2.8,4.3-5.5s2.3-2.7,4.5-5.3
	s2.5-2.5,4.7-5.2s2.2-2.7,4.5-5.4"/>
<path class="st0" d="M105.4,489.5c2.2-2.7,2.3-2.6,4.5-5.3s2.2-2.7,4.4-5.4s2.3-2.6,4.5-5.3s2.1-2.8,4.4-5.4s2.4-2.5,4.7-5.2
	s2-2.8,4.3-5.5s2.2-2.7,4.5-5.3"/>
<path class="st0" d="M285.3,437.5c0-3.5-0.1-3.5-0.1-7s0-3.5,0-7s0-3.5,0-7s0-3.5,0-7s0.1-3.5,0.1-7s0-3.5,0-7s-0.1-3.5-0.1-7"/>
<path class="st0" d="M285.4,496.2c0-3.5-0.3-3.5-0.3-7s0.2-3.5,0.2-7s0-3.5,0-7s0.1-3.5,0.1-7s0.1-3.5,0.1-7s0.1-3.5,0.1-7
	s-0.2-3.5-0.2-7"/>
<path class="st0" d="M285.3,555c0-3.5,0-3.5,0-7s0-3.5,0-7v-7c0-3.5-0.1-3.5-0.1-7s0-3.5,0-7s0-3.5,0-7s0.2-3.5,0.2-7"/>
<path class="st0" d="M285.3,50.3c0-3.5-0.1-3.5-0.1-7s0-3.5,0-7s0-3.5,0-7s0-3.5,0-7s0.1-3.5,0.1-7s0-3.5,0-7s-0.1-3.5-0.1-7"/>
<path class="st0" d="M285.4,109c0-3.5-0.3-3.5-0.3-7s0.2-3.5,0.2-7s0-3.5,0-7s0.1-3.5,0.1-7s0.1-3.5,0.1-7s0.1-3.5,0.1-7
	s-0.2-3.5-0.2-7"/>
<path class="st0" d="M285.3,167.8c0-3.5,0-3.5,0-7s0-3.5,0-7v-7c0-3.5-0.1-3.5-0.1-7s0-3.5,0-7s0-3.5,0-7s0.2-3.5,0.2-7"/>
<path class="st0" d="M389.6,399.5c-2.2-2.7-2.1-2.8-4.4-5.4s-2.3-2.6-4.6-5.2s-2.1-2.8-4.3-5.5s-2.2-2.7-4.5-5.3s-2.4-2.5-4.7-5.2
	s-2-2.8-4.3-5.5s-2.2-2.7-4.4-5.4"/>
<path class="st0" d="M427.5,444.4c-2.2-2.7-2.3-2.6-4.5-5.3s-2.2-2.7-4.4-5.4s-2.2-2.7-4.5-5.4s-2.4-2.6-4.6-5.2s-2.3-2.6-4.6-5.2
	s-2-2.9-4.2-5.5l-4.5-5.3"/>
<path class="st0" d="M465.3,489.5c-2.2-2.7-2.3-2.6-4.5-5.3s-2.3-2.6-4.5-5.3s-2.1-2.8-4.4-5.4s-2.3-2.6-4.6-5.3s-2.1-2.8-4.4-5.4
	s-2.3-2.7-4.5-5.3s-2.2-2.7-4.4-5.4"/>
<path class="st0" d="M445.2,303.1c-3.4-0.6-3.4-0.6-6.9-1.2s-3.5-0.3-6.9-0.9s-3.4-0.7-6.8-1.3s-3.4-0.9-6.8-1.5s-3.5-0.5-6.9-1.1
	s-3.4-0.5-6.9-1.1s-3.4-0.7-6.8-1.3"/>
<path class="st0" d="M503,313.5c-3.4-0.6-3.4-0.5-6.9-1.1s-3.4-0.7-6.8-1.3s-3.4-0.8-6.8-1.4s-3.4-0.7-6.8-1.3s-3.4-0.5-6.9-1.2
	s-3.5-0.3-6.9-0.9s-3.4-0.8-6.8-1.4"/>
<path class="st0" d="M560.8,323.9l-6.9-1.2c-3.4-0.6-3.4-1-6.8-1.6s-3.5-0.4-6.9-1s-3.4-0.5-6.9-1.1s-3.4-0.9-6.8-1.5
	s-3.4-0.6-6.9-1.2s-3.5-0.5-6.9-1.1"/>
<path class="st0" d="M425.8,193.9c-3,1.7-3,1.8-6,3.5s-3,1.8-6,3.5l-6,3.5c-3,1.7-3.1,1.6-6.1,3.4s-2.9,2-5.9,3.7s-3.1,1.6-6.1,3.3
	s-3,1.8-6,3.5"/>
<path class="st0" d="M476.7,164.5c-3,1.7-3,1.7-6.1,3.4s-2.8,2-5.8,3.8s-3.1,1.5-6.1,3.3s-3,1.8-6,3.5s-3,1.7-6.1,3.4
	s-3.1,1.6-6.1,3.3s-2.9,2-5.9,3.7"/>
<path class="st0" d="M527.7,135.3c-3,1.7-3,1.7-6,3.4s-3,1.8-6,3.5s-3,1.7-6.1,3.4s-3.1,1.6-6.1,3.3s-2.9,2-5.9,3.7
	s-3.2,1.5-6.2,3.2s-2.9,2-5.9,3.8"/>
<path class="st0" d="M341,122.6c-1.2,3.3-1.3,3.2-2.5,6.5s-1.5,3.2-2.7,6.4s-0.9,3.4-2.1,6.6s-1.3,3.2-2.5,6.5s-1.2,3.3-2.4,6.5
	s-1.2,3.3-2.4,6.5s-1.2,3.3-2.4,6.5"/>
<path class="st0" d="M361,67.4c-1.2,3.3-1.5,3.1-2.7,6.4s-1.1,3.3-2.3,6.6s-1.1,3.3-2.3,6.6s-1,3.3-2.2,6.6s-1.1,3.3-2.3,6.6
	s-1.2,3.3-2.4,6.5s-1.4,3.2-2.6,6.5"/>
<path class="st0" d="M381.2,12.2l-2.4,6.5c-1.2,3.3-1.3,3.2-2.5,6.5s-1.2,3.3-2.4,6.5s-1.3,3.2-2.5,6.5s-1.3,3.2-2.5,6.5
	s-1,3.3-2.2,6.6s-1.1,3.3-2.3,6.6"/>
<path class="st0" d="M206.5,138.9c1.7,2.9,1.8,2.8,3.4,5.7s1.6,2.9,3.2,5.8s1.6,2.9,3.3,5.8s1.8,2.8,3.4,5.7"/>
<path class="st0" d="M161.6,60.9c1.6,2.9,1.7,2.8,3.4,5.7s1.5,2.9,3.2,5.8s1.7,2.8,3.4,5.7s1.7,2.8,3.4,5.7"/>
<path class="st0" d="M178.3,89.5c1.8,3.1,1.6,3.2,3.4,6.3s1.8,3.1,3.5,6.2l3.6,6.2c1.8,3.1,1.8,3.1,3.6,6.2s1.8,3.1,3.6,6.2
	s2,3,3.8,6.1s1.7,3.2,3.5,6.3"/>
<path class="st0" d="M137.4,221.4c3.1,1.1,3.2,1,6.3,2.1s3.1,1.1,6.2,2.3s3,1.3,6.2,2.4s3.1,1.1,6.2,2.2"/>
<path class="st0" d="M52.7,190.6c3.1,1.1,3.2,1,6.3,2.1s3.1,1.3,6.2,2.4s3.2,1,6.3,2.1s3.1,1.2,6.2,2.3"/>
<path class="st0" d="M83.9,202c3.4,1.2,3.4,1.3,6.7,2.5s3.4,1.1,6.8,2.3s3.3,1.3,6.7,2.5s3.4,1.3,6.7,2.5s3.4,1.3,6.7,2.5
	s3.4,1.3,6.7,2.5s3.5,0.8,6.9,2.1"/>
<path class="st0" d="M137.4,328.9c3.1-1.1,3.1-1.1,6.2-2.2s3.1-1.3,6.2-2.4s3.1-1.1,6.3-2.2s3.1-1.1,6.2-2.2"/>
<path class="st0" d="M52.8,359.8c3.1-1.1,3.1-1.1,6.2-2.3s3.1-1.3,6.2-2.4s3.1-1.1,6.3-2.2s3.1-1.1,6.2-2.2"/>
<path class="st0" d="M83.9,348.3c3.4-1.2,3.5-1,6.8-2.2s3.3-1.4,6.7-2.6s3.3-1.4,6.7-2.6s3.4-1.1,6.8-2.3s3.3-1.4,6.7-2.6
	s3.5-0.9,6.9-2.1s3.3-1.5,6.7-2.7"/>
<path class="st0" d="M206.6,411.4c1.6-2.9,1.5-2.9,3.2-5.8s1.7-2.8,3.4-5.7s1.7-2.9,3.3-5.7s1.6-2.9,3.3-5.8"/>
<path class="st0" d="M161.6,489.4c1.7-2.9,1.6-2.9,3.2-5.8s1.7-2.8,3.4-5.7l3.3-5.7c1.7-2.9,1.8-2.8,3.4-5.7"/>
<path class="st0" d="M178.3,460.7c1.8-3.1,1.5-3.3,3.4-6.3s2-3,3.8-6.1s1.6-3.2,3.4-6.3s1.9-3,3.7-6.2s1.9-3.1,3.7-6.2
	s1.5-3.3,3.3-6.4s1.8-3.1,3.6-6.2"/>
<path class="st0" d="M312.5,430.1c-0.6-3.3-0.5-3.3-1-6.5s-0.5-3.3-1.1-6.5s-0.6-3.3-1.2-6.5l-1.2-6.5"/>
<path class="st0" d="M328.1,518.8c-0.6-3.3-0.5-3.3-1.1-6.5s-0.6-3.3-1.2-6.5s-0.6-3.3-1.2-6.5s-0.5-3.3-1-6.5"/>
<path class="st0" d="M322.4,486.1c-0.6-3.5-0.4-3.6-1.1-7.1s-0.9-3.5-1.5-7s-0.4-3.6-1-7.1s-0.6-3.5-1.2-7.1s-0.9-3.5-1.5-7
	s-0.3-3.6-0.9-7.1s-0.7-3.5-1.3-7.1"/>
<path class="st0" d="M405.8,376.3c-2.5-2.1-2.5-2.2-5-4.3s-2.6-2.1-5.1-4.2s-2.5-2.2-5.1-4.3s-2.6-2.1-5.1-4.2"/>
<path class="st0" d="M474.7,434.2c-2.5-2.1-2.5-2.2-5-4.4s-2.6-2.1-5.1-4.2l-5.1-4.3c-2.5-2.1-2.6-2.1-5.1-4.2"/>
<path class="st0" d="M449.4,412.7c-2.8-2.3-2.7-2.4-5.5-4.7s-3-2-5.7-4.4s-2.6-2.5-5.3-4.8s-2.9-2.1-5.7-4.4s-2.7-2.3-5.5-4.6
	s-2.8-2.3-5.5-4.6s-2.7-2.4-5.4-4.7"/>
<path class="st0" d="M442.6,275c-3.3,0-3.3,0.2-6.6,0.2s-3.3-0.2-6.6-0.2s-3.3,0.1-6.6,0.1h-6.6"/>
<path class="st0" d="M532.7,275.2c-3.3,0-3.3,0-6.6,0s-3.3-0.1-6.6-0.1s-3.3-0.1-6.6-0.1s-3.3-0.1-6.6-0.1"/>
<path class="st0" d="M499.5,275c-3.6,0-3.6,0.2-7.2,0.2s-3.6,0.1-7.2,0.1s-3.6-0.1-7.2-0.1s-3.6,0-7.2,0h-7.2c-3.6,0-3.6,0-7.2,0
	s-3.6-0.3-7.2-0.3"/>
<path class="st0" d="M405.8,174c-2.5,2.1-2.6,2-5.1,4.2s-2.5,2.2-5,4.4l-5.1,4.3c-2.5,2.1-2.6,2.1-5.1,4.2"/>
<path class="st0" d="M474.8,116.1c-2.5,2.1-2.6,2.1-5.1,4.2s-2.6,2.1-5.1,4.2s-2.5,2.2-5,4.3s-2.5,2.2-5.1,4.3"/>
<path class="st0" d="M449.4,137.5c-2.8,2.3-2.9,2.1-5.7,4.4s-2.6,2.5-5.3,4.8s-2.7,2.3-5.5,4.6s-2.9,2.1-5.6,4.5s-2.6,2.5-5.4,4.8
	s-2.7,2.3-5.5,4.6s-2.8,2.3-5.5,4.6"/>
<path class="st0" d="M312.7,120.2c-0.6,3.3-0.7,3.2-1.3,6.5s-0.4,3.3-1,6.5s-0.7,3.3-1.3,6.5s-0.6,3.3-1.1,6.5"/>
<path class="st0" d="M328.3,31.5c-0.6,3.3-0.8,3.2-1.3,6.5s-0.4,3.3-1,6.5s-0.5,3.3-1.1,6.5s-0.6,3.3-1.1,6.5"/>
<path class="st0" d="M322.3,64.1c-0.6,3.5-0.4,3.6-1,7.1s-0.5,3.6-1.1,7.1s-0.7,3.5-1.3,7s-0.6,3.5-1.2,7.1s-0.8,3.5-1.4,7
	s-0.7,3.5-1.3,7.1s-0.7,3.5-1.3,7.1"/>
<path class="st0" d="M258.2,120.4c0.6,3.6,0.3,3.7,1,7.3s0.8,3.6,1.5,7.2s0.6,3.6,1.3,7.2s0.6,3.6,1.3,7.2s0.7,3.6,1.3,7.2
	s0.4,3.6,1.1,7.3s0.8,3.6,1.4,7.2s0.7,3.6,1.3,7.2"/>
<path class="st0" d="M244.5,44.7c0.6,3.4,0.7,3.4,1.3,6.7s0.6,3.4,1.2,6.7s0.3,3.4,0.9,6.8s1,3.3,1.6,6.7s0.7,3.4,1.3,6.7
	s0.5,3.4,1.1,6.8s0.8,3.3,1.4,6.7s0.2,3.4,0.8,6.8s0.5,3.4,1.1,6.8s0.8,3.3,1.4,6.7"/>
<path class="st0" d="M165,174.1c2.8,2.4,2.9,2.3,5.7,4.6s2.7,2.5,5.5,4.9s2.8,2.3,5.6,4.7s2.9,2.3,5.7,4.7s2.7,2.5,5.5,4.8
	s2.9,2.2,5.7,4.6s2.7,2.5,5.5,4.9s2.8,2.4,5.6,4.8"/>
<path class="st0" d="M106,124.8c2.6,2.2,2.8,2,5.4,4.2s2.5,2.3,5.2,4.5s2.7,2.1,5.3,4.3s2.3,2.6,5,4.8s2.8,2,5.4,4.2
	s2.5,2.4,5.1,4.6s2.9,1.8,5.5,4s2.4,2.5,5,4.7s2.8,2,5.5,4.2s2.5,2.4,5.1,4.6"/>
<path class="st0" d="M128.2,274.9h14.7c3.7,0,3.7,0,7.3,0s3.7,0.2,7.3,0.2s3.7-0.1,7.3-0.1s3.7,0.4,7.3,0.4s3.7-0.3,7.4-0.3
	s3.7,0.1,7.3,0.1"/>
<path class="st0" d="M51.3,275.1c3.4,0,3.4,0.3,6.9,0.3h6.8c3.4,0,3.4,0,6.8,0s3.4-0.3,6.9-0.3h6.8c3.4,0,3.4,0.1,6.9,0.1
	s3.4-0.2,6.8-0.2s3.4,0.3,6.9,0.3s3.4-0.2,6.9-0.2s3.4,0.2,6.9,0.2"/>
<path class="st0" d="M164.9,376c2.8-2.4,2.9-2.2,5.7-4.6s2.7-2.5,5.5-4.9s2.9-2.3,5.7-4.7s2.9-2.3,5.7-4.6s2.7-2.5,5.5-4.8
	s2.7-2.5,5.5-4.8s2.9-2.3,5.7-4.7s3-2.2,5.8-4.5"/>
<path class="st0" d="M106.1,425.6c2.6-2.2,2.5-2.3,5.2-4.5s2.5-2.3,5.1-4.5s2.7-2.1,5.3-4.3s2.7-2.1,5.3-4.3s2.6-2.3,5.2-4.5
	s2.7-2.1,5.3-4.3s2.4-2.4,5.1-4.6s2.7-2.1,5.3-4.3s2.8-2,5.5-4.2s2.5-2.4,5.1-4.6"/>
<path class="st0" d="M258,429.8c0.6-3.6,0.6-3.6,1.2-7.2s0.9-3.6,1.6-7.2s0.4-3.7,1.1-7.3s0.8-3.6,1.4-7.2s0.3-3.7,0.9-7.3
	s1-3.5,1.7-7.2s0.2-3.7,0.8-7.3s1-3.5,1.6-7.2"/>
<path class="st0" d="M244.8,505.6c0.6-3.4,0.7-3.3,1.3-6.7s0.4-3.4,1-6.8s0.5-3.4,1.1-6.8s0.7-3.4,1.3-6.7s0.2-3.4,0.8-6.8
	s1-3.3,1.6-6.7s0.4-3.4,1-6.8s1-3.3,1.6-6.7s0.5-3.4,1-6.8c0.6-3.4,0.7-3.4,1.3-6.7"/>
<path class="st0" d="M363.7,411.2c-1.8-3.2-1.7-3.2-3.5-6.4s-2-3.1-3.9-6.2s-1.5-3.4-3.3-6.5s-1.8-3.2-3.7-6.3s-1.9-3.2-3.7-6.3
	s-2.1-3-4-6.2s-1.7-3.3-3.6-6.4s-1.6-3.3-3.5-6.5"/>
<path class="st0" d="M402.1,477.9c-1.7-3-1.8-2.9-3.5-5.9s-1.5-3.1-3.3-6s-1.4-3.1-3.1-6.1s-1.8-2.9-3.5-5.9s-2.1-2.8-3.8-5.7
	s-1.3-3.2-3-6.2s-1.9-2.9-3.6-5.8s-1.7-3-3.4-6s-1.9-2.9-3.6-5.8s-1.7-3-3.4-6"/>
<path class="st0" d="M432.9,328.8c-3.5-1.3-3.4-1.4-6.9-2.6s-3.5-1-7-2.3l-6.9-2.5c-3.5-1.3-3.5-1.2-6.9-2.5s-3.4-1.4-6.8-2.6
	s-3.4-1.3-6.9-2.6s-3.5-1-7-2.2s-3.3-1.6-6.8-2.9"/>
<path class="st0" d="M505.1,355.3c-3.2-1.2-3.3-1.1-6.5-2.3s-3.1-1.5-6.3-2.6s-3.2-1.2-6.4-2.4s-3.2-1.3-6.4-2.5s-3.3-1.1-6.5-2.3
	s-3.4-0.7-6.6-1.9s-3.1-1.4-6.3-2.6l-6.5-2.3c-3.2-1.2-3.3-1-6.5-2.2s-3.1-1.4-6.4-2.6"/>
<path class="st0" d="M432.9,221.5c-3.5,1.3-3.4,1.4-6.9,2.6s-3.5,1-7,2.3s-3.5,1-7,2.3s-3.4,1.3-6.9,2.6s-3.3,1.5-6.8,2.8
	s-3.5,1.2-6.9,2.5s-3.4,1.4-6.8,2.7s-3.5,1.2-6.9,2.5"/>
<path class="st0" d="M505.2,195.1c-3.2,1.2-3.2,1.1-6.5,2.3s-3.3,1-6.5,2.2s-3.2,1.3-6.4,2.5s-3.3,1-6.5,2.2s-3.2,1.2-6.4,2.4
	s-3.1,1.4-6.3,2.6s-3.2,1.2-6.4,2.4s-3.2,1.2-6.4,2.4s-3.3,0.8-6.6,2s-3.1,1.4-6.3,2.6"/>
<path class="st0" d="M363.9,139.1c-1.8,3.2-2,3.1-3.9,6.2s-1.6,3.3-3.4,6.5s-1.9,3.1-3.8,6.3s-1.7,3.2-3.6,6.4s-1.9,3.1-3.8,6.3
	s-1.7,3.3-3.5,6.4s-1.8,3.2-3.6,6.4s-2,3.1-3.8,6.3"/>
<path class="st0" d="M402.5,72.6c-1.7,3-1.7,3-3.4,5.9s-1.9,2.8-3.7,5.8s-1.6,3-3.3,6s-1.7,3-3.4,5.9s-1.5,3.1-3.3,6
	s-2.2,2.7-3.9,5.7s-1.3,3.2-3,6.2s-2,2.8-3.7,5.8s-1.6,3-3.4,6s-1.9,2.9-3.6,5.8"/>
</svg>
